# xmcd
#
# Track frame offsets: 
#        150
#        14031
#        26758
#        40362
#        53865
#        66983
#        79863
#        93060
#        107533
#        120281
#        133699
#        147661
#        159417
#        172657
#        186313
#        200105
#        210150
#        223153
#        237122
#        250404
#        262999
#        277618
#        291485
#        302983
#        316198
#
# Disc length: 4400 seconds
#
# Revision: 0
# Processed by: cddbd v1.5.2PL0 Copyright (c) Steve Scherf et al.
# Submitted via: ExactAudioCopyFreeDBPlugin 1.0
#
DISCID=6c112e19
DTITLE=Various Artist - The Definitive Country Blues Collection - Century Of 
DTITLE=The Blues CD4
DYEAR=2014
DGENRE=Blues
TTITLE0=Big Bill Broonzy - Key To The Highway
TTITLE1=Big Joe Williams - Baby Please Don't Go
TTITLE2=Henry Townsend - Poor Man Blues
TTITLE3=Sam Theard - You Can't Get That Stuff No More
TTITLE4=Big Maceo Merriweather - Worried Life Blues
TTITLE5=Jazz Gillum - Jockey Blues
TTITLE6=Arthur Crudup - That's All Right
TTITLE7=Joe McCoy and Minnie McCoy - When The Levee Breaks
TTITLE8=Memphis Minnie - Me And My Chauffeur
TTITLE9=Casey Bill Weldon - Guitar Swing
TTITLE10=Washboard Sam - Mama Don't Allow No. 2
TTITLE11=Muddy Waters - Gypsy Woman
TTITLE12=Holwin Wolf - Moanin' At Midnight
TTITLE13=Sonny Boy Williamson - Good Morning Little Schoolgirl
TTITLE14=Sonny Boy Williamson - Eyesight To The Blind
TTITLE15=Little Walter - Evans Shuffle
TTITLE16=Sister Rosetta Tharpe - This Train
TTITLE17=Robert Nighthawk - Prowling Nighthawk
TTITLE18=Jimmy Whitherspoon - Ain't Nobody's Business Pt. 1
TTITLE19=Elmore James - Dust My Broom
TTITLE20=B.B. King - B.B. Boogie
TTITLE21=B.B. King - Three O'Clock Blues
TTITLE22=Lowell Fulson - Everyday I Have The Blues
TTITLE23=T-Bone Walker - Mean Old World
TTITLE24=T-Bone Walker - Call It Stormy Monday
EXTD=
EXTT0=
EXTT1=
EXTT2=
EXTT3=
EXTT4=
EXTT5=
EXTT6=
EXTT7=
EXTT8=
EXTT9=
EXTT10=
EXTT11=
EXTT12=
EXTT13=
EXTT14=
EXTT15=
EXTT16=
EXTT17=
EXTT18=
EXTT19=
EXTT20=
EXTT21=
EXTT22=
EXTT23=
EXTT24=
PLAYORDER=
